<svg width="686" height="318" viewBox="0 0 686 318" fill="none" xmlns="http://www.w3.org/2000/svg">
<path d="M196 24.25V293.75C196 300.248 193.419 306.479 188.824 311.074C184.23 315.669 177.998 318.25 171.5 318.25C165.002 318.25 158.771 315.669 154.176 311.074C149.581 306.479 147 300.248 147 293.75V195.75H24.5001C20.212 195.724 16.0057 194.573 12.3018 192.413C8.5978 190.252 5.52585 187.156 3.39297 183.436C1.26008 179.716 0.140974 175.501 0.147489 171.213C0.154005 166.925 1.28592 162.714 3.4301 159L76.9301 36.5C78.3419 33.3761 80.3936 30.5833 82.9525 28.302C85.5114 26.0208 88.5206 24.302 91.7855 23.2567C95.0503 22.2114 98.4982 21.8629 101.906 22.2338C105.314 22.6046 108.606 23.6865 111.57 25.4096C114.534 27.1326 117.103 29.4584 119.111 32.2367C121.12 35.0149 122.523 38.1836 123.229 41.5381C123.936 44.8925 123.931 48.358 123.215 51.7104C122.498 55.0628 121.086 58.2275 119.07 61L67.8651 146.75H147V24.25C147 17.7522 149.581 11.5205 154.176 6.92589C158.771 2.33125 165.002 -0.25 171.5 -0.25C177.998 -0.25 184.23 2.33125 188.824 6.92589C193.419 11.5205 196 17.7522 196 24.25ZM661.5 -0.25C655.002 -0.25 648.771 2.33125 644.176 6.92589C639.581 11.5205 637 17.7522 637 24.25V146.75H557.865L609.07 61C611.568 55.473 611.927 49.216 610.078 43.4396C608.228 37.6632 604.302 32.7781 599.058 29.7296C593.815 26.6811 587.627 25.6858 581.692 26.9365C575.757 28.1872 570.497 31.5948 566.93 36.5L493.43 159C491.286 162.714 490.154 166.925 490.147 171.213C490.141 175.501 491.26 179.716 493.393 183.436C495.526 187.156 498.598 190.252 502.302 192.413C506.006 194.573 510.212 195.724 514.5 195.75H637V293.75C637 300.248 639.581 306.479 644.176 311.074C648.771 315.669 655.002 318.25 661.5 318.25C667.998 318.25 674.23 315.669 678.824 311.074C683.419 306.479 686 300.248 686 293.75V24.25C686 17.7522 683.419 11.5205 678.824 6.92589C674.23 2.33125 667.998 -0.25 661.5 -0.25ZM441 220.25V97.75C441 71.7588 430.675 46.8321 412.297 28.4535C393.918 10.075 368.991 -0.25 343 -0.25C317.009 -0.25 292.082 10.075 273.704 28.4535C255.325 46.8321 245 71.7588 245 97.75V220.25C245 246.241 255.325 271.168 273.704 289.546C292.082 307.925 317.009 318.25 343 318.25C368.991 318.25 393.918 307.925 412.297 289.546C430.675 271.168 441 246.241 441 220.25ZM392 97.75V220.25C392 233.246 386.838 245.709 377.648 254.898C368.459 264.087 355.996 269.25 343 269.25C330.004 269.25 317.541 264.087 308.352 254.898C299.163 245.709 294 233.246 294 220.25V97.75C294 84.7544 299.163 72.2911 308.352 63.1018C317.541 53.9125 330.004 48.75 343 48.75C355.996 48.75 368.459 53.9125 377.648 63.1018C386.838 72.2911 392 84.7544 392 97.75Z" fill="#A3B18A"/>
</svg>
